{
  "accessors": [
    {
      "name": "Node-Mesh_0_positions",
      "componentType": 5126,
      "count": 2274,
      "min": [
        -0.8455482125282288,
        -0.2919350862503052,
        -0.7111495733261108
      ],
      "max": [
        0.8045008182525635,
        0.4949808120727539,
        0.8091123104095459
      ],
      "type": "VEC3",
      "bufferView": 0,
      "byteOffset": 0
    },
    {
      "name": "Node-Mesh_0_normals",
      "componentType": 5126,
      "count": 2274,
      "min": [
        -0.9990958571434021,
        -0.9998596906661987,
        -0.9997655153274536
      ],
      "max": [
        0.9955321550369263,
        0.9918544888496399,
        1
      ],
      "type": "VEC3",
      "bufferView": 1,
      "byteOffset": 0
    },
    {
      "name": "Node-Mesh_0_indices",
      "componentType": 5123,
      "count": 2442,
      "min": [
        0
      ],
      "max": [
        2273
      ],
      "type": "SCALAR",
      "bufferView": 2,
      "byteOffset": 0
    },
    {
      "name": "Node-Mesh_1_positions",
      "componentType": 5126,
      "count": 322,
      "min": [
        -0.6276823282241821,
        -1.246567964553833,
        -0.44988390803337097
      ],
      "max": [
        0.4986344873905182,
        0.21065209805965424,
        0.5190672278404236
      ],
      "type": "VEC3",
      "bufferView": 0,
      "byteOffset": 27288
    },
    {
      "name": "Node-Mesh_1_normals",
      "componentType": 5126,
      "count": 322,
      "min": [
        -0.988371729850769,
        -1,
        -0.9957666993141174
      ],
      "max": [
        0.9995269775390625,
        0.9974374771118164,
        1
      ],
      "type": "VEC3",
      "bufferView": 1,
      "byteOffset": 27288
    },
    {
      "name": "Node-Mesh_1_indices",
      "componentType": 5123,
      "count": 354,
      "min": [
        0
      ],
      "max": [
        321
      ],
      "type": "SCALAR",
      "bufferView": 2,
      "byteOffset": 4884
    }
  ],
  "asset": {
    "generator": "obj2gltf",
    "version": "2.0"
  },
  "buffers": [
    {
      "name": "Tree-processed",
      "byteLength": 67896,
      "uri": "data:application/octet-stream;base64,"
    }
  ],
  "bufferViews": [
    {
      "name": "bufferView_0",
      "buffer": 0,
      "byteLength": 31152,
      "byteOffset": 0,
      "byteStride": 12,
      "target": 34962
    },
    {
      "name": "bufferView_1",
      "buffer": 0,
      "byteLength": 31152,
      "byteOffset": 31152,
      "byteStride": 12,
      "target": 34962
    },
    {
      "name": "bufferView_2",
      "buffer": 0,
      "byteLength": 5592,
      "byteOffset": 62304,
      "target": 34963
    }
  ],
  "materials": [
    {
      "name": "mat9",
      "pbrMetallicRoughness": {
        "baseColorFactor": [
          0.27,
          0.55,
          0.07,
          1
        ],
        "metallicFactor": 0,
        "roughnessFactor": 1
      },
      "emissiveFactor": [
        0,
        0,
        0
      ],
      "alphaMode": "OPAQUE",
      "doubleSided": false
    },
    {
      "name": "mat20",
      "pbrMetallicRoughness": {
        "baseColorFactor": [
          0.19,
          0.09,
          0.06,
          1
        ],
        "metallicFactor": 0,
        "roughnessFactor": 1
      },
      "emissiveFactor": [
        0,
        0,
        0
      ],
      "alphaMode": "OPAQUE",
      "doubleSided": false
    }
  ],
  "meshes": [
    {
      "name": "Node-Mesh",
      "primitives": [
        {
          "attributes": {
            "POSITION": 0,
            "NORMAL": 1
          },
          "indices": 2,
          "material": 0,
          "mode": 4
        },
        {
          "attributes": {
            "POSITION": 3,
            "NORMAL": 4
          },
          "indices": 5,
          "material": 1,
          "mode": 4
        }
      ]
    }
  ],
  "nodes": [
    {
      "name": "Node",
      "mesh": 0
    }
  ],
  "scene": 0,
  "scenes": [
    {
      "nodes": [
        0
      ]
    }
  ]
}
